<svg xmlns="http://www.w3.org/2000/svg" viewBox="0 0 1280 1565"><defs><style>.cls-1{fill:#001220;}.cls-2{fill:#003d85;}.cls-3{fill:#0e5ef1;}</style></defs><g id="Calque_2" data-name="Calque 2"><g id="Calque_1-2" data-name="Calque 1"><rect class="cls-1" width="1280" height="1565"/><path class="cls-2" d="M1280,916.83c-67.13-8.35-134.26-16.43-191.29-69.64s-104.39-151-134.54-249.62C924,499.23,910.65,400.12,884.48,300.48S819.2,100.42,780.09,0H1280Z"/><path class="cls-3" d="M1280,458.55c-33.56-4.18-67.13-8.35-95.72-35s-52-75.64-67.27-124.68c-15.07-49.29-21.61-98.85-34.7-148.67S1049.6,50.08,1030,0h250Z"/><path class="cls-2" d="M0,648.17c65.14,12.26,130.28,24.52,191.29,69.64C252.44,763.2,309.48,841.19,341.9,938c32.57,96.77,40.54,212,62.86,319.52C427,1365.2,463.5,1465.1,499.91,1565H0Z"/><path class="cls-3" d="M0,1106.45c32.57,6.27,65.14,12.26,95.72,35s59,61.81,75.23,110.07,20.34,105.9,31.43,159.89c11.1,53.73,29.3,103.55,47.65,153.63H0Z"/></g></g></svg>