<?xml version="1.0" encoding="utf-8"?>
<!-- Generator: Adobe Illustrator 26.0.2, SVG Export Plug-In . SVG Version: 6.00 Build 0)  -->
<svg version="1.1" id="Calque_1" xmlns="http://www.w3.org/2000/svg" xmlns:xlink="http://www.w3.org/1999/xlink" x="0px" y="0px"
	 viewBox="0 0 1280 2024" style="enable-background:new 0 0 1280 2024;" xml:space="preserve">
<style type="text/css">
	.st0{fill:#001220;}
	.st1{fill:#003D85;}
	.st2{fill:#0E5EF1;}
</style>
<rect class="st0" width="1280" height="2055"/>
<g transform="translate(900, 0)">
	<path class="st1" d="M380,1109.6c-67.1-10.1-134.3-19.9-191.3-84.3C131.5,960.9,84.3,842.5,54.2,723.2
		c-30.2-119-43.5-239-69.7-359.5S-80.8,121.5-119.9,0H380V1109.6z"/>
	<path class="st2" d="M380,554.9c-33.6-5.1-67.1-10.1-95.7-42.3c-28.4-32.2-52.1-91.5-67.3-150.9c-15.1-59.7-21.6-119.6-34.7-179.9
		C169.1,121.5,149.6,60.6,130,0h250V554.9z"/>
</g>
<g transform="translate(0, 600)">
	<path class="st1" d="M248.2,1423.1l249.8,0.1c-36.4,128.2-73,256.4-95.2,394.7c-22.4,137.9-30.4,285.9-63,410.1
		c-32.5,124.2-89.5,224.3-150.6,282.5c-61,57.9-126.1,73.6-191.2,89.3l0.2-588.2c32.6-8,65.1-15.7,95.7-44.8
		c30.4-29.1,59-79.3,75.2-141.3c16.2-61.9,20.4-135.9,31.5-205.2C211.7,1551.3,229.9,1487.4,248.2,1423.1z"/>
	<path class="st1" d="M93.7,875.6C63.2,846.3,30.6,838.6-2,830.5V238.3c65.2,15.8,130.3,31.7,191.3,90
		c61.2,58.6,118.2,159.4,150.6,284.5c32.6,125.1,40.5,274,62.9,412.9c22.2,139.2,58.7,268.3,95.2,397.4H248.1
		c-18.4-64.7-36.6-129.1-47.7-198.5c-11.1-69.8-15.2-144.3-31.4-206.6C152.8,955.5,124.2,905,93.7,875.6z"/>
	<path class="st1" d="M248.2,1423.1c-18.3,64.3-36.6,128.2-47.7,197.2c-11.1,69.3-15.2,143.3-31.5,205.2
		c-16.2,61.9-44.8,112.2-75.2,141.3c-30.6,29.1-63.1,36.8-95.7,44.8l0.2-588.6L248.2,1423.1z"/>
	<path class="st2" d="M248.2,1423.1c-18.3,64.3-36.6,128.2-47.7,197.2c-11.1,69.3-15.2,143.3-31.5,205.2
		c-16.2,61.9-44.8,112.2-75.2,141.3c-30.6,29.1-63.1,36.8-95.7,44.8l0.2-588.6L248.2,1423.1z"/>
</g>
<g transform="translate(0, 600)">
	<path class="st1" d="M248.1,1423H-2V830.5c32.6,8.1,65.2,15.8,95.7,45.2c30.4,29.3,59,79.9,75.2,142.2
		c16.2,62.3,20.3,136.8,31.4,206.6C211.5,1293.9,229.7,1358.3,248.1,1423z"/>
	<path class="st2" d="M248.1,1423H-2V830.5c32.6,8.1,65.2,15.8,95.7,45.2c30.4,29.3,59,79.9,75.2,142.2
		c16.2,62.3,20.3,136.8,31.4,206.6C211.5,1293.9,229.7,1358.3,248.1,1423z"/>
</g>
</svg>
