<svg style="object-fit:cover" id="my-svg" version="1" baseProfile="full" width="100%" height="100%" viewBox="0 0 1495 746" xmlns="http://www.w3.org/2000/svg"><rect width="1495" height="746" fill="#ffffff"/><defs><linearGradient id="linear-gradient" x1="0.5" x2="0.5" y1="0" y2="1"><stop offset="0%" stop-color="#4667ec70"/><stop offset="100%" stop-color="#1c39bb70"/></linearGradient></defs><path transform="scale(1, -1)" d="M 0,746 V 0,223 C 41.85126609328654,209.41429779413212 83.70253218657308,195.82859558826425 125,211 C 166.29746781342692,226.17140441173575 207.04113734699416,270.0999154410751 245,269 C 282.95886265300584,267.9000845589249 318.13291842545027,221.77174264743556 356,189 C 393.86708157454973,156.22825735256444 434.4271889512046,136.81311396918272 479,153 C 523.5728110487954,169.18688603081728 572.1583257697317,220.97580147583358 613,242 C 653.8416742302683,263.0241985241664 686.9395079698683,253.28368012748297 728,247 C 769.0604920301317,240.71631987251703 818.0836423507949,237.88947801423456 858,225 C 897.9163576492051,212.11052198576544 928.7259226269522,189.1584078155789 973,176 C 1017.2740773730478,162.8415921844211 1075.0126671413966,159.47689072344986 1117,170 C 1158.9873328586034,180.52310927655014 1185.2234088074608,204.93402929062168 1230,230 C 1274.7765911925392,255.06597070937832 1338.0936976287605,280.7869921140634 1391,262 C 1443.9063023712395,243.2130078859366 1486.4018006774968,179.91800225312474 1502,166 C 1517.5981993225032,152.08199774687526 1506.2990996612516,187.54099887343762 1495,223 C 1495,223 1495,746 1495,746 Z" stroke="none" stroke-width="0" fill="url(#linear-gradient)" class="transition-all duration-300 ease-in-out delay-150" style="transform-origin: center center;"/><defs><linearGradient id="linear-gradient" x1="0.5" x2="0.5" y1="0" y2="1"><stop offset="0%" stop-color="#4667ec80"/><stop offset="100%" stop-color="#1c39bb80"/></linearGradient></defs><path transform="scale(1, -1)" d="M 0,746 V 0,335 C 32.279826896823906,365.19021168464235 64.55965379364781,395.38042336928476 110,374 C 155.4403462063522,352.61957663071524 214.04121172223262,279.6685182075033 264,276 C 313.9587882777674,272.3314817924967 355.27549931742175,337.9455038007018 396,329 C 436.72450068257825,320.0544961992982 476.85679100808034,236.54946658968936 510,254 C 543.1432089919197,271.45053341031064 569.2973366502571,389.8566298405408 611,388 C 652.7026633497429,386.1433701594592 709.9538623908915,264.0240140481476 757,265 C 804.0461376091085,265.9759859518524 840.8872137861772,390.04731396686884 871,407 C 901.1127862138228,423.95268603313116 924.4972824643996,333.7867300843771 975,331 C 1025.5027175356004,328.2132699156229 1103.1236563562243,412.80576569562265 1143,416 C 1182.8763436437757,419.19423430437735 1185.0080921107028,340.99020713313206 1222,297 C 1258.9919078892972,253.00979286686794 1330.843975200965,243.2334057718491 1382,278 C 1433.156024799035,312.7665942281509 1463.616007085439,392.0761697794717 1479,409 C 1494.383992914561,425.9238302205283 1494.6919964572805,380.46191511026416 1495,335 C 1495,335 1495,746 1495,746 Z" stroke="none" stroke-width="0" fill="url(#linear-gradient)" class="transition-all duration-300 ease-in-out delay-150" style="transform-origin: center center;"/><defs><linearGradient id="linear-gradient" x1="0.5" x2="0.5" y1="0" y2="1"><stop offset="0%" stop-color="#4667ec90"/><stop offset="100%" stop-color="#1c39bb90"/></linearGradient></defs><path transform="scale(1, -1)" d="M 0,746 V 0,503 C 56.23639201183664,511.52671679345843 112.47278402367328,520.0534335869169 145,537 C 177.52721597632672,553.9465664130831 186.3452559171435,579.3129824457909 228,565 C 269.6547440828565,550.6870175542091 344.14619230775264,496.6946366299194 386,486 C 427.85380769224736,475.3053633700806 437.06997485184604,507.90847103453166 479,544 C 520.930025148154,580.0915289654683 595.5739082848633,619.6714792319541 645,585 C 694.4260917151367,550.3285207680459 718.6343920087006,441.4056120376515 752,441 C 785.3656079912994,440.5943879623485 827.8885236803343,548.7060726174401 864,553 C 900.1114763196657,557.2939273825599 929.8115132699622,457.77009749258815 980,448 C 1030.1884867300378,438.22990250741185 1100.8654232398167,518.2135374122072 1140,556 C 1179.1345767601833,593.7864625877928 1186.7267937707709,589.3757528585836 1225,568 C 1263.2732062292291,546.6242471414164 1332.2274016771,508.2834511534583 1388,479 C 1443.7725983229,449.7165488465417 1486.3635995208288,429.49044252758335 1502,435 C 1517.6364004791712,440.50955747241665 1506.3182002395856,471.7547787362083 1495,503 C 1495,503 1495,746 1495,746 Z" stroke="none" stroke-width="0" fill="url(#linear-gradient)" class="transition-all duration-300 ease-in-out delay-150" style="transform-origin: center center;"/><defs><linearGradient id="linear-gradient" x1="0.5" x2="0.5" y1="0" y2="1"><stop offset="0%" stop-color="#4667ecff"/><stop offset="100%" stop-color="#1c39bbff"/></linearGradient></defs><path transform="scale(1, -1)" d="M 0,746 V 0,755 C 45.811913836773584,764.8367047777255 91.62382767354717,774.6734095554509 133,757 C 174.37617232645283,739.3265904445491 211.31660314258482,694.1430665559217 255,708 C 298.6833968574152,721.8569334440783 349.10975975611365,794.7543242208623 386,817 C 422.89024024388635,839.2456757791377 446.2443578329606,810.8396365606296 479,766 C 511.7556421670394,721.1603634393704 553.9128089120438,659.8871295366195 599,676 C 644.0871910879562,692.1128704633805 692.1044065188645,785.6118452928929 735,791 C 777.8955934811355,796.3881547071071 815.669565012498,713.6654892918092 861,691 C 906.330434987502,668.3345107081908 959.217333431144,705.7261975398706 997,721 C 1034.782666568856,736.2738024601294 1057.4611012629255,729.4297205487087 1098,733 C 1138.5388987370745,736.5702794512913 1196.938261517154,750.5549202652945 1248,753 C 1299.061738482846,755.4450797347055 1342.7858526684583,746.3505983901131 1392,733 C 1441.2141473315417,719.6494016098869 1495.9183278090118,702.0426861742535 1514,705 C 1532.0816721909882,707.9573138257465 1513.5408360954941,731.4786569128732 1495,755 C 1495,755 1495,746 1495,746 Z" stroke="none" stroke-width="0" fill="url(#linear-gradient)" class="transition-all duration-300 ease-in-out delay-150" style="transform-origin: center center;"/></svg>