<?xml version="1.0" encoding="utf-8"?>
<!-- Generator: Adobe Illustrator 26.0.2, SVG Export Plug-In . SVG Version: 6.00 Build 0)  -->
<svg version="1.1" id="Calque_1" xmlns="http://www.w3.org/2000/svg" xmlns:xlink="http://www.w3.org/1999/xlink" x="0px" y="0px"
	 viewBox="0 0 1280 5024" style="enable-background:new 0 0 1280 5024;" xml:space="preserve">
<style type="text/css">
	.st0{fill:#001220;}
	.st1{fill:#003D85;}
	.st2{fill:#0E5EF1;}
</style>
<rect x="-1" y="-2" class="st0" width="1280" height="3122"/>
<g transform="translate(900, 0)">
	<path class="st1" d="M380,916.8c-67.1-8.3-134.3-16.4-191.3-69.6C131.5,794,84.3,696.2,54.2,597.6C24,499.2,10.6,400.1-15.5,300.5
		S-80.8,100.4-119.9,0H380V916.8z"/>
	<path class="st2" d="M380,458.5c-33.6-4.2-67.1-8.3-95.7-35C255.8,397,232.2,348,217,298.9c-15.1-49.3-21.6-98.9-34.7-148.7
		C169.1,100.4,149.6,50.1,130,0h250V458.5z"/>
</g>
<g transform="translate(0, 600)">
	<path class="st1" d="M1280,1613.2c-59.7,12.3-119.4,24.5-175.3,69.6c-56,45.4-108.3,123.4-138,220.1
		c-29.8,96.8-37.1,212.1-57.6,319.5c-20.3,107.7-53.8,207.6-87.2,307.5H1280V1613.2z"/>
	<path class="st2" d="M1280,2071.5c-29.8,6.3-59.7,12.3-87.7,35c-27.9,22.7-54.1,61.8-68.9,110.1s-18.6,105.9-28.8,159.9
		c-10.2,53.7-26.8,103.6-43.7,153.6H1280V2071.5z"/>
</g>
<g transform="translate(900, 0)">
	<path class="st1" d="M-402.5,1675.5l-249.9-0.1h-0.2c0-0.1,0.1-0.2,0.1-0.3c0,0,0-0.1,0-0.1c-19.5-50-38.9-100.2-52.1-149.9
		c-13-49.8-19.6-99.4-34.6-148.7c-15.2-49-38.8-98.1-67.2-124.7c-28.6-26.6-62.1-30.8-95.7-35l0.2-458.3
		c67.1,8.4,134.2,16.5,191.2,69.7c57.2,53.2,104.3,151.1,134.4,249.7c30.1,98.3,43.4,197.5,69.5,297.1c26.1,99.5,65,199.8,104,300
		C-402.6,1675.2-402.6,1675.3-402.5,1675.5z"/>
	<path class="st2" d="M-652.5,1675.1c0,0.1-0.1,0.2-0.1,0.3c-19.6,49.9-39.1,100.2-52.3,149.8c-13.1,49.8-19.7,99.4-34.8,148.7
		c-15.2,49-38.9,98.1-67.4,124.7c-28.6,26.6-62.3,30.8-95.9,35V1675h0.6l0.2-458.3c33.6,4.2,67.1,8.4,95.7,35
		c28.4,26.6,52,75.7,67.2,124.7c15,49.3,21.6,98.9,34.6,148.7c13.2,49.7,32.6,99.9,52.1,149.9
		C-652.5,1675-652.5,1675.1-652.5,1675.1z"/>
	<path class="st2" d="M-652.4,1675.4h-0.2c0-0.1,0.1-0.2,0.1-0.3C-652.4,1675.2-652.4,1675.3-652.4,1675.4z"/>
</g>
<g transform="translate(900, 0)">
	<path class="st1" d="M-402,1675c-39.2,100.4-78.4,200.8-104.6,300.5c-26.2,99.6-39.6,198.8-69.8,297.1
		c-30.2,98.6-77.5,196.4-134.8,249.6c-57.2,53.2-124.4,61.3-191.7,69.6v-458.3c33.6-4.2,67.3-8.4,95.9-35
		c28.5-26.6,52.2-75.6,67.4-124.7c15.1-49.3,21.7-98.8,34.8-148.7c13.2-49.7,32.7-99.9,52.3-149.8c0-0.1,0.1-0.2,0.1-0.3
		c0,0,0-0.1,0-0.1H-402z"/>
	<path class="st2" d="M-655.4,1675c0,0,0,0.1,0,0.1C-655.5,1675.1-655.5,1675-655.4,1675L-655.4,1675z"/>
</g>
</svg>
